# xmcd CD database file
#
# Track frame offsets:
#	150
#	18375
#	33150
#
# Disc length: 732 seconds
#
# Revision: 0
# Processed by: cddbd v1.5.1PL0 Copyright (c) Steve Scherf et al.
# Submitted via: CDex 1.51
#
DISCID=1702da03
DTITLE=パンプキンヘッド - マリリソマソソソ
DYEAR=1900
DGENRE=JPop
TTITLE0=2度程
TTITLE1=Y曲
TTITLE2=I wana be Rockn' Roll SATR★
EXTD=
EXTT0=
EXTT1=
EXTT2=
PLAYORDER=
